<?xml version="1.0" encoding="utf-8"?>
<!-- Generator: Adobe Illustrator 25.4.1, SVG Export Plug-In . SVG Version: 6.00 Build 0)  -->
<svg version="1.1" id="图层_1" xmlns="http://www.w3.org/2000/svg" xmlns:xlink="http://www.w3.org/1999/xlink" x="0px" y="0px"
	 viewBox="0 0 377.36 262.63" style="enable-background:new 0 0 377.36 262.63;" xml:space="preserve">
<style type="text/css">
	.st0{opacity:0;fill:none;stroke:#000000;stroke-miterlimit:10;}
</style>
<g>
	<g>
		<path class="st0" d="M-20.69-87.11c139.96,0,279.92,0,420,0c0,139.97,0,279.99,0,420c-140.02,0-280.01,0-420-0.01
			C-20.69,192.9-20.69,52.92-20.69-87.11z M262.1,262.63c0.97-1.72,1.41-2.36,1.72-3.05c12.87-29.42,25.8-58.82,38.47-88.33
			c0.96-2.25,0.84-5.63-0.12-7.92c-6.55-15.65-13.46-31.15-20.25-46.7C265.73,79.58,249.48,42.56,233.4,5.47
			c-1.79-4.13-3.91-5.94-8.78-5.87c-23.84,0.31-47.68,0.14-71.52,0.15c-1.75,0-3.5,0-6.04,0
			C185.51,87.58,223.61,174.65,262.1,262.63z M115.05,263.14c13.92-31.93,27.37-62.69,40.62-93.54c0.7-1.64,0.13-4.23-0.65-6.03
			C131.81,110.18,108.48,56.84,85.27,3.45c-1.27-2.93-2.98-3.8-6.06-3.79c-25,0.11-50,0.06-75,0.08C2.98-0.26,1.76-0.02,0,0.16
			C38.36,87.83,76.48,174.96,115.05,263.14z M335.91,94.78C349.88,62.82,363.52,31.64,377.36,0c-27.84,0-55.05,0-82.9,0
			C308.29,31.6,321.92,62.78,335.91,94.78z"/>
		<path d="M262.1,262.63C223.6,174.65,185.5,87.58,147.06-0.28c2.54,0,4.29,0,6.04,0c23.84,0,47.68,0.17,71.52-0.15
			c4.87-0.06,6.99,1.74,8.78,5.87c16.08,37.09,32.32,74.12,48.52,111.16c6.8,15.55,13.7,31.05,20.25,46.7
			c0.96,2.29,1.08,5.68,0.12,7.92c-12.67,29.51-25.59,58.91-38.47,88.33C263.52,260.28,263.08,260.92,262.1,262.63z"/>
		<path d="M115.05,263.14C76.48,174.97,38.36,87.83,0,0.16c1.76-0.18,2.99-0.42,4.21-0.42c25-0.02,50,0.04,75-0.08
			c3.08-0.01,4.78,0.86,6.06,3.79c23.21,53.39,46.54,106.72,69.75,160.12c0.78,1.8,1.36,4.4,0.65,6.03
			C142.42,200.45,128.97,231.21,115.05,263.14z"/>
		<path d="M335.91,94.78C321.92,62.79,308.28,31.6,294.46,0c27.85,0,55.06,0,82.9,0C363.53,31.64,349.89,62.82,335.91,94.78z"/>
	</g>
</g>
</svg>
